Coordinates
version=1
nRows=27
nColumns=12
inDegrees=yes

Units are S.I. units (second, meters, Newtons, ...)
Angles are in degrees

endheader
time	SC_y	SC_z	SC_x	AC_y	AC_z	AC_x	GH_y	GH_z	GH_yy	EL_x	PS_y
       0.0              -28.55          37.22          40.99           50.8          3.853           17.1          53.25         -18.51          135.7          99.34          112.3
   0.01591              -28.55          37.22          40.99           50.8          3.852          17.09          53.23         -18.51          135.7          99.33          112.3
   0.03182              -28.55          37.22           41.0           50.8          3.851          17.09           53.2         -18.51          135.7          99.33          112.3
   0.04774              -28.55          37.22           41.0           50.8          3.851          17.09          53.18          -18.5          135.7          99.33          112.3
   0.06365              -28.55          37.22           41.0          50.79           3.85          17.09          53.15          -18.5          135.6          99.33          112.2
   0.07956              -28.54          37.22          41.01          50.79           3.85          17.08          53.12          -18.5          135.6          99.32          112.2
   0.09547              -28.54          37.22          41.01          50.79          3.849          17.08          53.09         -18.49          135.6          99.32          112.2
    0.1114              -28.54          37.22          41.02          50.79          3.848          17.08          53.06         -18.49          135.5          99.31          112.2
    0.1273              -28.54          37.22          41.02          50.79          3.847          17.08          53.03         -18.49          135.5          99.31          112.2
    0.1432              -28.54          37.22          41.03          50.78          3.846          17.07          52.99         -18.48          135.4          99.31          112.2
    0.1591              -28.54          37.22          41.03          50.78          3.846          17.07          52.95         -18.48          135.4           99.3          112.1
     0.175              -28.54          37.22          41.04          50.78          3.845          17.07           52.9         -18.47          135.4           99.3          112.1
    0.1909              -28.53          37.22          41.04          50.78          3.843          17.06          52.86         -18.47          135.3          99.29          112.1
    0.2069              -28.53          37.22          41.05          50.77          3.842          17.06          52.81         -18.46          135.2          99.28          112.1
    0.2228              -28.53          37.22          41.06          50.77          3.841          17.05          52.75         -18.46          135.2          99.28          112.1
    0.2387              -28.53          37.22          41.07          50.76           3.84          17.05          52.69         -18.45          135.1          99.27          112.0
    0.2546              -28.52          37.23          41.07          50.76          3.838          17.04          52.63         -18.44          135.0          99.26          112.0
    0.2705              -28.52          37.23          41.08          50.76          3.837          17.04          52.56         -18.43          135.0          99.25          112.0
    0.2864              -28.52          37.23          41.09          50.75          3.835          17.03          52.48         -18.43          134.9          99.25          111.9
    0.3023              -28.51          37.23           41.1          50.75          3.833          17.03           52.4         -18.42          134.8          99.24          111.9
    0.3182              -28.51          37.23          41.12          50.74          3.831          17.02           52.3         -18.41          134.7          99.22          111.8
    0.3342               -28.5          37.23          41.13          50.73          3.828          17.01           52.2         -18.39          134.6          99.21          111.8
    0.3501               -28.5          37.23          41.15          50.73          3.826           17.0          52.09         -18.38          134.4           99.2          111.7
     0.366              -28.49          37.23          41.16          50.72          3.823          16.99          51.97         -18.37          134.3          99.18          111.7
    0.3819              -28.49          37.23          41.18          50.71           3.82          16.98          51.83         -18.35          134.1          99.17          111.6
    0.3978              -28.48          37.23           41.2           50.7          3.816          16.97          51.67         -18.34          134.0          99.15          111.5
    0.4137              -28.47          37.23          41.22          50.69          3.812          16.95           51.5         -18.32          133.8          99.13          111.5
